<?xml version="1.0" encoding="UTF-8" standalone="no"?>
<!-- Created with Inkscape (http://www.inkscape.org/) -->

<svg
   xmlns:dc="http://purl.org/dc/elements/1.1/"
   xmlns:cc="http://creativecommons.org/ns#"
   xmlns:rdf="http://www.w3.org/1999/02/22-rdf-syntax-ns#"
   xmlns:svg="http://www.w3.org/2000/svg"
   xmlns="http://www.w3.org/2000/svg"
   xmlns:sodipodi="http://sodipodi.sourceforge.net/DTD/sodipodi-0.dtd"
   xmlns:inkscape="http://www.inkscape.org/namespaces/inkscape"
   id="svg2"
   version="1.1"
   inkscape:version="0.91 r13725"
   xml:space="preserve"
   width="354.33084"
   height="354.33112"
   viewBox="0 0 354.33084 354.33112"
   sodipodi:docname="DESY_logo_4C_nofade.svg"><metadata
     id="metadata8"><rdf:RDF><cc:Work
         rdf:about=""><dc:format>image/svg+xml</dc:format><dc:type
           rdf:resource="http://purl.org/dc/dcmitype/StillImage" /><dc:title></dc:title></cc:Work></rdf:RDF></metadata><defs
     id="defs6" /><sodipodi:namedview
     pagecolor="#ffffff"
     bordercolor="#666666"
     borderopacity="1"
     objecttolerance="10"
     gridtolerance="10"
     guidetolerance="10"
     inkscape:pageopacity="0"
     inkscape:pageshadow="2"
     inkscape:window-width="1920"
     inkscape:window-height="1163"
     id="namedview4"
     showgrid="true"
     inkscape:snap-object-midpoints="true"
     inkscape:snap-global="true"
     inkscape:snap-bbox="true"
     inkscape:snap-grids="false"
     inkscape:bbox-paths="true"
     inkscape:bbox-nodes="true"
     inkscape:snap-bbox-midpoints="true"
     inkscape:snap-bbox-edge-midpoints="true"
     inkscape:zoom="2.5372935"
     inkscape:cx="209.64663"
     inkscape:cy="177.45161"
     inkscape:window-x="1920"
     inkscape:window-y="0"
     inkscape:window-maximized="1"
     inkscape:current-layer="g10"
     inkscape:snap-page="true"
     showguides="true"
     fit-margin-top="0"
     fit-margin-left="0"
     fit-margin-right="0"
     fit-margin-bottom="0"><inkscape:grid
       type="xygrid"
       id="grid4223"
       originx="-8.8579125"
       originy="-8.8588754" /></sodipodi:namedview><g
     inkscape:groupmode="layer"
     id="layer2"
     inkscape:label="black helper"
     style="display:inline"
     transform="translate(-8.8579125,-8.86)" /><g
     inkscape:groupmode="layer"
     id="layer1"
     inkscape:label="bg"
     style="display:inline"
     transform="translate(-8.8579125,-8.86)"><path
       style="fill:#ffffff;fill-opacity:1;stroke:#ffffff;stroke-width:0;stroke-miterlimit:4;stroke-dasharray:none;stroke-dashoffset:0;stroke-opacity:1"
       d="m 172.91518,356.95512 c -4.87528,-0.33348 -15.34639,-1.84489 -21.60469,-3.11845 C 123.74106,348.22633 97.573117,335.53372 75.608689,317.11794 70.472138,312.81127 62.012102,304.47568 57.107091,298.8885 22.583368,259.56334 8.040605,206.69099 17.485103,154.83694 26.719914,104.13415 59.108849,59.773655 104.97647,35.00714 c 18.85239,-10.179471 39.19451,-16.54756 61.74429,-19.329022 8.25813,-1.01862 30.04983,-1.019938 38.56522,-0.0023 33.62392,4.018122 64.5533,17.185715 89.99642,38.314262 28.07397,23.313267 48.0864,54.9695 56.88363,89.9802 3.66866,14.60025 4.98294,25.68339 4.98294,42.0201 0,12.59496 -0.33259,17.15582 -2.02545,27.77494 -5.89259,36.96358 -24.8363,72.29928 -52.39264,97.72799 -28.22934,26.04974 -62.82664,41.57352 -100.6063,45.14199 -5.76821,0.54483 -23.13927,0.73505 -29.2094,0.31985 z"
       id="path8173"
       inkscape:connector-curvature="0" /></g><g
     id="g10"
     inkscape:groupmode="layer"
     inkscape:label="ink_ext_XXXXXX"
     transform="matrix(1.25,0,0,-1.25,-8.8579125,363.19)"
     style="display:inline"><path
       inkscape:connector-curvature="0"
       id="path14"
       style="fill:#00adef;fill-opacity:1;fill-rule:nonzero;stroke:none"
       d="m 148.819,13.4648 c -74.7542,0 -135.3545,60.5993 -135.3545,135.3542 0,74.754 60.6003,135.354 135.3545,135.354 74.754,0 135.354,-60.6 135.354,-135.354 0,-74.7549 -60.6,-135.3542 -135.354,-135.3542 z m 0,277.0872 C 70.5426,290.552 7.08633,227.095 7.08633,148.819 7.08633,70.543 70.5426,7.08711 148.819,7.08711 c 78.276,0 141.732,63.45589 141.732,141.73189 0,78.276 -63.456,141.733 -141.732,141.733" /><path
       inkscape:connector-curvature="0"
       id="path16"
       style="fill:#00adef;fill-opacity:1;fill-rule:nonzero;stroke:none"
       d="m 222.76,106.853 c -5.4,-0.047 -10.329,-2.023 -14.146,-5.266 l -15.59,13.315 c -1.335,1.141 -3.342,0.981 -4.48,-0.352 -1.14,-1.335 -0.981,-3.34 0.352,-4.481 l 15.51,-13.246 c -2.318,-3.5378 -3.653,-7.7761 -3.614,-12.323 0.107,-12.2379 10.116,-22.0738 22.354,-21.966 12.238,0.107 22.073,10.114 21.966,22.3531 -0.106,12.2379 -10.114,22.0729 -22.352,21.9659" /><path
       inkscape:connector-curvature="0"
       id="path18"
       style="fill:#00adef;fill-opacity:1;fill-rule:nonzero;stroke:none"
       d="m 145.642,207.525 0,-22.059 c 0,-1.755 1.422,-3.178 3.177,-3.178 1.755,0 3.178,1.423 3.178,3.178 l 0,22.058 c 15.608,1.592 27.787,14.775 27.787,30.803 0,17.102 -13.863,30.964 -30.965,30.964 -17.101,0 -30.964,-13.862 -30.964,-30.964 0,-16.028 12.178,-29.211 27.787,-30.802" /><path
       inkscape:connector-curvature="0"
       id="path20"
       style="fill:#00adef;fill-opacity:1;fill-rule:nonzero;stroke:none"
       d="m 191.161,181.768 c 0.729,0 1.464,0.25 2.061,0.762 l 26.34,22.496 c 2.204,-1.654 4.954,-2.612 7.922,-2.534 6.994,0.183 12.515,6.001 12.331,12.994 -0.182,6.994 -6,12.515 -12.994,12.332 -6.993,-0.183 -12.514,-6.001 -12.331,-12.994 0.045,-1.723 0.435,-3.355 1.097,-4.835 l -26.492,-22.627 c -1.335,-1.14 -1.492,-3.145 -0.353,-4.48 0.628,-0.736 1.521,-1.114 2.419,-1.114" /><path
       inkscape:connector-curvature="0"
       id="path22"
       style="fill:#00adef;fill-opacity:1;fill-rule:nonzero;stroke:none"
       d="m 217.842,124.014 0,19.534 12.582,30.099 -12.512,0 -5.701,-18.421 -0.139,0 -5.561,18.421 -12.929,0 12.582,-30.099 0,-19.534 11.678,0" /><path
       inkscape:connector-curvature="0"
       id="path24"
       style="fill:#00adef;fill-opacity:1;fill-rule:nonzero;stroke:none"
       d="m 89.7086,140.732 c -0.2555,-2.248 -0.6727,-3.974 -1.2516,-5.178 -0.5797,-1.206 -1.3324,-1.994 -2.259,-2.364 -0.9277,-0.371 -2.0628,-0.556 -3.4058,-0.556 l -3.1285,0 0,32.393 3.2672,0 c 1.5293,0 2.7683,-0.232 3.7191,-0.695 0.9492,-0.464 1.6793,-1.275 2.1895,-2.433 0.5097,-1.158 0.8453,-2.735 1.0082,-4.727 0.1617,-1.993 0.2429,-4.495 0.2429,-7.507 0,-3.708 -0.1277,-6.685 -0.382,-8.933 z m 3.0238,31.698 c -2.0855,0.811 -4.5652,1.217 -7.4379,1.217 l -17.309,0 0,-49.633 16.1274,0 c 3.8457,0 6.9269,0.533 9.2449,1.599 2.3168,1.066 4.1012,2.687 5.3527,4.866 1.2508,2.178 2.0735,4.924 2.4675,8.238 0.393,3.312 0.591,7.217 0.591,11.713 0,4.31 -0.313,7.947 -0.938,10.913 -0.626,2.965 -1.6115,5.353 -2.9548,7.16 -1.3446,1.807 -3.0586,3.116 -5.1438,3.927" /><path
       inkscape:connector-curvature="0"
       id="path26"
       style="fill:#00adef;fill-opacity:1;fill-rule:nonzero;stroke:none"
       d="m 144.121,133.468 -17.796,0 0,11.331 15.988,0 0,9.454 -15.988,0 0,9.94 17.031,0 0,9.454 -28.709,0 0,-49.633 29.474,0 0,9.454" /><path
       inkscape:connector-curvature="0"
       id="path28"
       style="fill:#00adef;fill-opacity:1;fill-rule:nonzero;stroke:none"
       d="m 186.279,145.876 c -1.043,1.784 -2.363,3.221 -3.962,4.31 -1.599,1.089 -3.314,1.97 -5.144,2.641 -1.831,0.672 -3.545,1.356 -5.144,2.051 -1.599,0.696 -2.92,1.53 -3.962,2.503 -1.043,0.973 -1.564,2.34 -1.564,4.101 0,3.568 1.552,5.353 4.657,5.353 1.669,0 2.85,-0.58 3.545,-1.738 0.649,-1.067 0.974,-2.805 0.974,-5.214 l 11.26,0 0,1.182 c 0,1.9 -0.277,3.672 -0.834,5.318 -0.556,1.644 -1.459,3.081 -2.71,4.31 -1.252,1.227 -2.885,2.189 -4.901,2.884 -2.016,0.696 -4.484,1.043 -7.403,1.043 -3.013,0 -5.55,-0.394 -7.612,-1.182 -2.062,-0.788 -3.743,-1.842 -5.04,-3.162 -1.298,-1.321 -2.224,-2.863 -2.78,-4.623 -0.556,-1.762 -0.835,-3.639 -0.835,-5.631 0,-3.105 0.522,-5.585 1.565,-7.438 1.042,-1.854 2.363,-3.348 3.962,-4.483 1.599,-1.136 3.313,-2.028 5.144,-2.676 1.83,-0.65 3.545,-1.321 5.144,-2.016 1.598,-0.695 2.919,-1.542 3.962,-2.538 1.043,-0.997 1.564,-2.375 1.564,-4.136 0,-0.695 -0.082,-1.402 -0.243,-2.12 -0.163,-0.719 -0.452,-1.355 -0.869,-1.912 -0.417,-0.556 -0.962,-1.007 -1.634,-1.355 -0.672,-0.348 -1.518,-0.522 -2.537,-0.522 -2.04,0 -3.395,0.626 -4.067,1.877 -0.672,1.252 -1.007,2.827 -1.007,4.727 l 0,1.738 -11.262,0 0,-3.197 c 0,-2.596 0.452,-4.727 1.356,-6.396 0.904,-1.668 2.108,-2.989 3.615,-3.962 1.505,-0.973 3.243,-1.644 5.213,-2.016 1.969,-0.37 4.02,-0.556 6.152,-0.556 2.687,0 5.075,0.29 7.16,0.869 2.085,0.579 3.858,1.505 5.318,2.781 1.459,1.274 2.572,2.907 3.336,4.9 0.765,1.992 1.147,4.402 1.147,7.23 0,2.92 -0.521,5.271 -1.564,7.055" /><path
       inkscape:connector-curvature="0"
       id="path30"
       style="fill:#00adef;fill-opacity:1;fill-rule:nonzero;stroke:none"
       d="m 74.5559,190.531 c 5.3992,0.047 10.3289,2.024 14.1449,5.266 l 15.5902,-13.315 c 1.335,-1.141 3.342,-0.981 4.48,0.353 1.14,1.335 0.981,3.34 -0.353,4.481 l -15.5094,13.246 c 2.3187,3.538 3.6539,7.775 3.6144,12.323 -0.1074,12.238 -10.1152,22.073 -22.3535,21.966 -12.2386,-0.108 -22.0738,-10.114 -21.9664,-22.354 0.1059,-12.238 10.1145,-22.072 22.3528,-21.966" /><path
       inkscape:connector-curvature="0"
       id="path32"
       style="fill:#00adef;fill-opacity:1;fill-rule:nonzero;stroke:none"
       d="m 106.653,115.657 c -0.728,0 -1.463,-0.25 -2.061,-0.762 L 78.252,92.3988 c -2.2036,1.6543 -4.954,2.6114 -7.9223,2.534 C 63.3363,94.75 57.8152,88.932 57.9988,81.9391 c 0.1828,-6.9942 6,-12.5153 12.9946,-12.3321 6.9925,0.1828 12.514,6.0008 12.3312,12.9942 -0.0453,1.7226 -0.4355,3.3539 -1.0976,4.8347 l 26.492,22.6271 c 1.335,1.139 1.493,3.145 0.354,4.48 -0.629,0.736 -1.522,1.114 -2.42,1.114" /><path
       inkscape:connector-curvature="0"
       id="path34"
       style="fill:#00adef;fill-opacity:1;fill-rule:nonzero;stroke:none"
       d="m 151.997,90.1141 0,22.0589 c 0,1.755 -1.423,3.177 -3.178,3.177 -1.754,0 -3.177,-1.422 -3.177,-3.177 l 0,-22.0589 c -15.609,-1.5911 -27.787,-14.775 -27.787,-30.8032 0,-17.1007 13.863,-30.9648 30.964,-30.9648 17.102,0 30.965,13.8641 30.965,30.9648 0,16.0282 -12.179,29.2121 -27.787,30.8032" /><path
       inkscape:connector-curvature="0"
       id="path36"
       style="fill:#f68512;fill-opacity:1;fill-rule:nonzero;stroke:none"
       d="m 232.588,133.736 c -1.185,-1.186 -1.777,-2.624 -1.777,-4.317 0,-1.694 0.592,-3.133 1.777,-4.317 1.185,-1.186 2.624,-1.777 4.317,-1.777 1.693,0 3.132,0.591 4.317,1.777 1.185,1.184 1.778,2.623 1.778,4.317 0,1.693 -0.593,3.131 -1.778,4.317 -1.185,1.184 -2.624,1.777 -4.317,1.777 -1.693,0 -3.132,-0.593 -4.317,-1.777" /></g></svg>